HIERARCHY
ROOT root
{
	OFFSET	0	13.1	24.9
	CHANNELS 6  Xposition Yposition Zposition Xrotation Yrotation Zrotation
	JOINT spine_1
	{
		OFFSET	0	9.99999	0
		CHANNELS 3  Xrotation Yrotation Zrotation
		JOINT spine_2
		{
			OFFSET	0	112	-10
			CHANNELS 3  Xrotation Yrotation Zrotation
			JOINT spine_3
			{
				OFFSET	0	206.5	19.3
				CHANNELS 3  Xrotation Yrotation Zrotation
				JOINT spine_4
				{
					OFFSET	0	110.4	14.6
					CHANNELS 3  Xrotation Yrotation Zrotation
					JOINT neck_1
					{
						OFFSET	0	71.8	-50.3
						CHANNELS 3  Xrotation Yrotation Zrotation
						JOINT neck_2
						{
							OFFSET	0	86.2	-25.8
							CHANNELS 3  Xrotation Yrotation Zrotation
							JOINT head_ee
							{
								OFFSET	0	179.8	-8.7
								CHANNELS 3  Xrotation Yrotation Zrotation
								End Site
								{
									OFFSET	1	0	0
								}
							}
						}
					}
					JOINT left_clavicle
					{
						OFFSET	-43.2	22.4	-70.8
						CHANNELS 3  Xrotation Yrotation Zrotation
						JOINT left_shoulder
						{
							OFFSET	-93.9	-5.79999	48.7
							CHANNELS 3  Xrotation Yrotation Zrotation
							JOINT left_elbow
							{
								OFFSET	-291.4	-30.8	15.2
								CHANNELS 3  Xrotation Yrotation Zrotation
								JOINT left_lowarm_twist
								{
									OFFSET	-110.7	-3.89999	13.6
									CHANNELS 3  Xrotation Yrotation Zrotation
									JOINT left_hand
									{
										OFFSET	-110.7	-3.89999	13.6
										CHANNELS 3  Xrotation Yrotation Zrotation
										JOINT left_ee
										{
											OFFSET	-80.8	-5.10001	12.1
											CHANNELS 3  Xrotation Yrotation Zrotation
											End Site
											{
												OFFSET	1	0	0
											}
										}
									}
								}
							}
						}
					}
					JOINT right_clavicle
					{
						OFFSET	43.2	22.4	-70.8
						CHANNELS 3  Xrotation Yrotation Zrotation
						JOINT right_shoulder
						{
							OFFSET	93.9	-5.79999	48.7
							CHANNELS 3  Xrotation Yrotation Zrotation
							JOINT right_elbow
							{
								OFFSET	291.4	-30.8	15.2
								CHANNELS 3  Xrotation Yrotation Zrotation
								JOINT right_lowarm_twist
								{
									OFFSET	110.7	-3.89999	13.6
									CHANNELS 3  Xrotation Yrotation Zrotation
									JOINT right_hand
									{
										OFFSET	110.7	-3.89999	13.6
										CHANNELS 3  Xrotation Yrotation Zrotation
										JOINT right_ee
										{
											OFFSET	80.8	-5.10001	12.1
											CHANNELS 3  Xrotation Yrotation Zrotation
											End Site
											{
												OFFSET	1	0	0
											}
										}
									}
								}
							}
						}
					}
				}
			}
		}
	}
	JOINT left_hip
	{
		OFFSET	-82.8	-127.5	0.300001
		CHANNELS 3  Xrotation Yrotation Zrotation
		JOINT left_knee
		{
			OFFSET	-28.2	-396.7	2.2
			CHANNELS 3  Xrotation Yrotation Zrotation
			JOINT left_ankle
			{
				OFFSET	-11.7	-411.3	35.4
				CHANNELS 3  Xrotation Yrotation Zrotation
				JOINT left_toes
				{
					OFFSET	0	-60	-88.6
					CHANNELS 3  Xrotation Yrotation Zrotation
					JOINT left_foot_ee
					{
						OFFSET	-22.5	-16.5	-42.2
						CHANNELS 3  Xrotation Yrotation Zrotation
						End Site
						{
							OFFSET	1	0	0
						}
					}
				}
			}
		}
	}
	JOINT right_hip
	{
		OFFSET	82.8	-127.5	0.300001
		CHANNELS 3  Xrotation Yrotation Zrotation
		JOINT right_knee
		{
			OFFSET	28.2	-396.7	2.2
			CHANNELS 3  Xrotation Yrotation Zrotation
			JOINT right_ankle
			{
				OFFSET	11.7	-411.3	35.4
				CHANNELS 3  Xrotation Yrotation Zrotation
				JOINT right_toes
				{
					OFFSET	0	-60	-88.6
					CHANNELS 3  Xrotation Yrotation Zrotation
					JOINT right_foot_ee
					{
						OFFSET	22.5	-16.5	-42.2
						CHANNELS 3  Xrotation Yrotation Zrotation
						End Site
						{
							OFFSET	1	0	0
						}
					}
				}
			}
		}
	}
}
MOTION
Frames: 12
Frame Time: 0.02
960.16 730.403 -1672.26 -22.7263 67.9625 37.8964 3.90687 -1.07415 -5.04792 3.92072 -0.751195 -5.10583 3.97992 -0.020612 -5.16061 3.94374 -0.834303 -5.09295 7.0353 -6.35365 2.97933 7.35891 -13.3613 3.33774 -0.0 0.0 -0.0 6.79182 1.63574 13.1793 -17.4199 5.82259 80.2254 0.188241 -5.32751 0.00875792 -13.1053 -0.64148 1.54434 4.94193 21.5935 41.8623 -0.0 0.0 -0.0 -0.174047 -16.1856 -1.62744 -10.1008 0.884949 -71.4758 0.725106 19.7581 -0.12628 14.5868 -0.281453 1.83706 3.07415 -25.2115 -28.682 0.0 0.0 0.0 10.0589 -26.4928 -19.2547 -21.706 0.271467 3.3 20.4182 25.764 -2.93653 3.83113 -0.0 -0.0 -0.0 0.0 -0.0 25.569 10.6328 -20.9267 -13.7563 -0.31776 -2.08212 8.20685 -20.8359 1.20362 23.033 -0.0 -0.0 0.0 0.0 0.0 
954.884 730.098 -1678.12 -23.2336 68.0931 38.6887 3.97911 -0.968439 -5.17287 3.99376 -0.637774 -5.22382 4.0434 0.103031 -5.2615 4.00552 -0.728068 -5.21203 7.07302 -6.12072 2.98962 7.38179 -12.9755 3.35784 -0.0 0.0 -0.0 6.80718 0.643763 13.211 -18.8737 4.73746 80.553 0.191306 -5.41374 0.00904475 -12.8916 -0.628224 1.52043 4.95946 22.5627 42.1467 -0.0 0.0 -0.0 -0.017071 -16.3489 -1.89268 -9.70863 1.44479 -71.4176 0.785044 21.2504 -0.147276 15.3717 -0.283244 1.93729 3.08083 -23.3437 -28.3509 0.0 0.0 0.0 8.88057 -26.0237 -19.9694 -20.6474 0.287381 3.13835 21.9707 25.6392 -3.13684 4.10223 -0.0 -0.0 -0.0 0.0 -0.0 25.0844 11.073 -21.1609 -12.6775 -0.311009 -1.91673 7.77779 -20.4692 1.14053 24.3085 -0.0 -0.0 0.0 0.0 0.0 
944.821 733.77 -1683.1 -25.3189 68.4327 40.9072 3.98172 -0.962329 -5.18459 3.99645 -0.630934 -5.23513 4.04553 0.111229 -5.27173 4.00749 -0.721583 -5.22343 7.07361 -5.81415 3.51266 7.3987 -12.9243 3.98337 -0.0 0.0 -0.0 7.11475 0.341818 13.8189 -19.1302 3.88532 80.4893 0.199679 -5.64919 0.00985187 -12.4189 -0.599214 1.46734 4.89352 23.114 41.672 -0.0 0.0 -0.0 -0.0456034 -16.7577 -1.8951 -9.65019 1.91053 -71.3622 0.830608 22.365 -0.164204 15.9986 -0.283688 2.01736 3.12758 -21.3984 -28.2426 0.0 0.0 0.0 8.28325 -25.6612 -20.4274 -19.7408 0.298633 2.9997 23.6514 25.993 -3.35905 4.30565 -0.0 -0.0 -0.0 0.0 -0.0 24.858 11.1043 -21.46 -11.7798 -0.303018 -1.77923 7.50857 -20.476 1.10196 25.2719 -0.0 -0.0 0.0 0.0 0.0 
942.786 736.709 -1688.59 -25.9171 69.0309 41.3689 3.99616 -0.951938 -5.14259 4.01065 -0.623226 -5.19255 4.05865 0.111695 -5.22853 4.02123 -0.714326 -5.18084 6.806 -5.5884 3.61897 7.11883 -12.6526 4.08481 -0.0 0.0 -0.0 7.55885 -0.602464 14.7089 -19.4596 2.46659 80.4457 0.203768 -5.76409 0.0102585 -12.0977 -0.579758 1.43115 4.87069 23.2564 41.5025 -0.0 0.0 -0.0 0.254314 -14.7562 -2.14565 -9.47215 4.04306 -71.7696 0.865603 23.2091 -0.177758 16.4113 -0.283503 2.07007 3.17224 -20.2831 -28.2913 0.0 0.0 0.0 7.97046 -25.4367 -20.3787 -18.8944 0.307156 2.87011 23.6472 26.5957 -3.37099 3.77998 -0.0 -0.0 -0.0 0.0 -0.0 24.8791 11.3545 -22.2405 -10.5181 -0.288148 -1.5862 8.29774 -21.1892 1.21835 26.7087 -0.0 -0.0 0.0 0.0 0.0 
936.115 733.4 -1695.94 -26.8977 70.8494 43.042 3.89502 -0.977588 -5.23907 3.91005 -0.64271 -5.29046 3.96103 0.115193 -5.328 3.92217 -0.726517 -5.27963 6.49496 -5.53248 3.83087 6.814 -12.7611 4.30219 -0.0 0.0 -0.0 7.39953 -0.76842 14.3903 -19.7892 2.36999 80.8972 0.187301 -5.30106 0.00867089 -12.0402 -0.576295 1.42466 4.87415 23.9394 41.6132 -0.0 0.0 -0.0 -0.0245074 -16.3323 -1.87914 -8.47178 2.89149 -71.9059 0.905565 24.1602 -0.193812 16.9716 -0.282643 2.14163 3.1865 -19.1321 -28.1124 0.0 0.0 0.0 7.26116 -25.0628 -20.7806 -18.6555 0.309215 2.83352 24.6282 27.2635 -3.51031 4.36415 -0.0 -0.0 -0.0 0.0 -0.0 24.5843 11.8069 -22.6551 -10.8533 -0.292513 -1.63745 7.69432 -19.9271 1.12627 26.3781 -0.0 -0.0 0.0 0.0 0.0 
932.419 733.589 -1702.21 -29.5669 71.0607 45.2851 4.34819 -0.981596 -5.23442 4.36319 -0.647005 -5.28608 4.41258 0.068215 -5.32498 4.37386 -0.772435 -5.26926 5.59313 -6.1866 4.25012 5.9713 -14.2843 4.67049 -0.0 0.0 -0.0 8.27749 -0.689857 16.1579 -22.901 2.16829 78.3034 0.218142 -6.16766 0.0117524 -11.9113 -0.56856 1.41009 4.88307 23.3238 41.6125 -0.0 0.0 -0.0 -0.125391 -15.5509 -1.62916 -7.05054 4.22219 -71.3279 0.938759 24.9396 -0.207603 19.1858 -0.272401 2.42424 3.32962 -18.9933 -29.0805 0.0 0.0 0.0 7.28874 -24.8479 -20.0653 -17.1219 0.318799 2.59841 27.6834 27.7709 -3.90271 3.9627 -0.0 -0.0 -0.0 0.0 -0.0 24.453 11.7514 -22.8917 -8.27881 -0.251303 -1.24459 12.2177 -20.1879 1.76431 26.6597 -0.0 -0.0 0.0 0.0 0.0 
924.975 737.891 -1706.45 -31.1456 69.9408 46.8166 4.72603 -0.988229 -5.2595 4.74117 -0.652036 -5.31152 4.78956 0.0313175 -5.35118 4.75054 -0.812994 -5.28933 5.3197 -6.48335 4.55409 5.7373 -15.0697 4.98064 -0.0 0.0 -0.0 8.62548 -0.322567 16.8551 -24.8733 2.00255 78.9619 0.215434 -6.09168 0.0114633 -12.0713 -0.578167 1.42817 4.84233 23.5631 41.3089 -0.0 0.0 -0.0 -0.18189 -15.0207 -1.47617 -6.21358 5.48872 -70.919 0.953246 25.2767 -0.213751 20.7899 -0.258164 2.62863 3.44905 -18.8543 -29.8928 0.0 0.0 0.0 7.04762 -24.6242 -20.8079 -15.8054 0.322004 2.39646 28.2111 28.2589 -3.98026 3.63196 -0.0 -0.0 -0.0 0.0 -0.0 24.2219 11.9775 -22.712 -6.78398 -0.219286 -1.01744 14.3599 -19.4285 2.05206 26.4007 -0.0 -0.0 0.0 0.0 0.0 
922.315 739.424 -1709.11 -33.0999 70.418 48.4541 4.73514 -1.00235 -5.34983 4.75081 -0.660404 -5.40255 4.80056 0.0335724 -5.44255 4.7602 -0.825134 -5.37992 5.1013 -7.03538 4.13086 5.52099 -15.6578 4.44226 -0.0 0.0 -0.0 9.2145 0.78179 18.013 -25.2176 1.77471 77.4742 0.240597 -6.79689 0.0142876 -11.5464 -0.546833 1.36876 4.69547 21.6338 39.846 -0.0 0.0 -0.0 -0.680941 -14.9536 -0.668241 -6.79147 8.64529 -71.7357 0.952434 25.2579 -0.213404 23.3708 -0.223265 2.95643 3.83844 -18.603 -32.6567 0.0 0.0 0.0 8.40837 -22.8975 -19.9666 -13.3538 0.315605 2.0204 28.6588 28.1902 -4.03259 3.42623 -0.0 -0.0 -0.0 0.0 -0.0 23.7096 12.4754 -22.2473 -5.71883 -0.19286 -0.85612 16.6095 -19.797 2.35663 28.3776 -0.0 -0.0 0.0 0.0 0.0 
923.089 739.602 -1706.22 -34.4361 69.7458 49.3431 5.02898 -0.99916 -5.37348 5.0448 -0.655723 -5.42595 5.09293 0.0132511 -5.4653 5.05227 -0.848779 -5.3992 4.57981 -6.98601 4.58545 5.01817 -15.9965 4.89867 -0.0 0.0 -0.0 9.63221 0.177451 18.89 -26.7108 1.64994 76.8814 0.257 -7.25548 0.0162941 -11.5045 -0.544356 1.36401 4.83636 23.0627 41.1967 -0.0 0.0 -0.0 -0.305627 -14.2083 -1.17826 -5.91363 8.40445 -70.5428 0.986981 26.0545 -0.228362 22.8504 -0.231489 2.89047 3.56286 -18.7568 -30.684 0.0 0.0 0.0 8.5845 -24.492 -19.574 -12.774 0.311739 1.93151 30.4672 27.4501 -4.22643 3.65663 -0.0 -0.0 -0.0 0.0 -0.0 24.1795 12.0806 -21.4016 -5.2192 -0.179431 -0.78062 19.7302 -18.8843 2.75462 26.4584 -0.0 -0.0 0.0 0.0 0.0 
918.254 742.254 -1708.84 -37.6801 70.5012 51.9616 5.38572 -0.998984 -5.36411 5.40148 -0.656142 -5.41659 5.44798 -0.0222253 -5.45603 5.40754 -0.882357 -5.38447 2.91041 -5.49528 3.44071 3.14001 -12.5101 3.461 -0.0 0.0 -0.0 9.94176 0.00732559 19.5344 -26.3828 1.67127 77.0141 0.268922 -7.58822 0.017834 -10.9607 -0.512517 1.30215 4.87185 23.7346 41.5705 -0.0 0.0 -0.0 -0.350578 -15.4017 -1.25331 -3.37477 7.86957 -71.118 1.06367 27.7846 -0.263089 23.2408 -0.225376 2.93996 3.6883 -17.6545 -31.3284 0.0 0.0 0.0 9.15244 -22.5586 -19.1592 -9.93891 0.279899 1.49772 29.9138 26.7478 -4.14214 3.26416 -0.0 -0.0 -0.0 0.0 -0.0 23.3319 10.8372 -21.0518 -6.33917 -0.208615 -0.950015 18.7476 -21.3712 2.65444 28.7416 -0.0 -0.0 0.0 0.0 0.0 
916.066 743.223 -1715.24 -37.3697 70.4778 51.3049 5.56463 -1.01848 -5.34586 5.58026 -0.676753 -5.39961 5.6278 -0.0618965 -5.44138 5.58769 -0.919232 -5.36376 2.40122 -5.05443 3.1359 2.58607 -11.4998 3.09607 -0.0 0.0 -0.0 10.1207 0.693336 19.8677 -24.6514 1.43082 75.3303 0.405494 -11.3581 0.0403239 -9.89541 -0.451854 1.18011 4.93699 23.7364 42.1062 -0.0 0.0 -0.0 -0.466877 -15.009 -1.01845 -4.43122 9.533 -72.2586 1.10166 28.6218 -0.281041 22.9569 -0.229855 2.90397 3.46286 -14.3866 -28.8212 0.0 0.0 0.0 8.10416 -24.2037 -19.5738 -10.1406 0.282873 1.52852 30.6242 24.5004 -4.16686 3.10862 -0.0 -0.0 -0.0 0.0 -0.0 23.4705 11.8044 -20.821 -5.36662 -0.183462 -0.802885 19.9115 -21.0172 2.80133 30.6607 -0.0 -0.0 0.0 0.0 0.0 
912.661 742.172 -1714.51 -40.6297 71.0839 54.1709 5.67025 -1.00393 -5.2828 5.68552 -0.666232 -5.33577 5.73125 -0.0683582 -5.37665 5.69209 -0.915435 -5.29881 2.02722 -4.54583 2.67365 2.16573 -10.2309 2.58478 -0.0 0.0 -0.0 10.263 0.977708 20.1444 -23.4812 1.1815 74.4469 0.42862 -11.9876 0.0450029 -9.27845 -0.417766 1.10893 4.96079 24.0219 42.3351 -0.0 0.0 -0.0 -0.563559 -16.0619 -0.999666 -4.67803 10.486 -71.4107 1.13807 29.4118 -0.298701 23.2678 -0.22494 2.94338 3.51862 -11.0899 -28.244 0.0 0.0 0.0 8.29181 -24.0394 -19.1912 -8.11906 0.248164 1.22028 31.4131 23.2003 -4.22541 3.33015 -0.0 -0.0 -0.0 0.0 -0.0 23.3476 11.8655 -20.2288 -5.14782 -0.177459 -0.769843 21.7743 -21.6995 3.04811 31.975 -0.0 -0.0 0.0 0.0 0.0 
